<svg width="128" height="128" viewBox="0 0 128 128"
     xmlns="http://www.w3.org/2000/svg">

<style>
  /* Conveyor movement */
  .belt {
    animation: beltMove 1.6s linear infinite;
  }

  @keyframes beltMove {
    from { transform: translateX(0); }
    to   { transform: translateX(-16px); }
  }

  /* Product pulse */
  .product {
    animation: productPulse 1.6s ease-in-out infinite;
    transform-origin: center;
    transform-box: fill-box;
  }

  @keyframes productPulse {
    0%   { transform: scale(1); opacity: 0.7; }
    50%  { transform: scale(1.1); opacity: 1; }
    100% { transform: scale(1); opacity: 0.7; }
  }

  /* Status light */
  .status {
    animation: blink 1.6s ease-in-out infinite;
  }

  @keyframes blink {
    0%,100% { opacity: 0.4; }
    50%     { opacity: 1; }
  }
</style>

<!-- Factory Body -->
<rect x="18" y="30" width="92" height="44" rx="6"
      fill="#ECEFF1" stroke="#455A64" stroke-width="4"/>

<!-- Factory Top -->
<rect x="30" y="18" width="20" height="12" rx="2"
      fill="#90A4AE"/>
<rect x="56" y="18" width="20" height="12" rx="2"
      fill="#90A4AE"/>
<rect x="82" y="18" width="20" height="12" rx="2"
      fill="#90A4AE"/>

<!-- Status Indicator -->
<circle cx="98" cy="42" r="5"
        fill="#4CAF50" class="status"/>

<!-- Conveyor Base -->
<rect x="16" y="78" width="96" height="14" rx="7"
      fill="#B0BEC5"/>

<!-- Conveyor Rollers -->
<g class="belt" fill="#78909C">
  <rect x="20" y="80" width="10" height="10" rx="5"/>
  <rect x="36" y="80" width="10" height="10" rx="5"/>
  <rect x="52" y="80" width="10" height="10" rx="5"/>
  <rect x="68" y="80" width="10" height="10" rx="5"/>
  <rect x="84" y="80" width="10" height="10" rx="5"/>
  <rect x="100" y="80" width="10" height="10" rx="5"/>
</g>

<!-- Product -->
<rect x="54" y="66" width="20" height="12" rx="2"
      fill="#FFD54F" class="product"/>

</svg>
